<?xml version="1.0" standalone="no"?>
<!DOCTYPE svg PUBLIC "-//W3C//DTD SVG 1.1//EN" "http://www.w3.org/Graphics/SVG/1.1/DTD/svg11.dtd" >
<svg xmlns="http://www.w3.org/2000/svg">
<metadata>Generated by IcoMoon</metadata>
<defs>
<font id="icomoon" horiz-adv-x="1024">
<font-face units-per-em="1024" ascent="960" descent="-64" />
<missing-glyph horiz-adv-x="1024" />
<glyph unicode="&#x20;" horiz-adv-x="512" d="" />
<glyph unicode="&#xe92c;" glyph-name="edit" d="M896 132.288v-51.2h-768v51.2h768zM764.48 820.672l155.52-214.016-556.992-404.672-193.28 23.040 37.76 190.976 556.992 404.672z" />
<glyph unicode="&#xe932;" glyph-name="done2" d="M512 960c282.77 0 512-229.23 512-512s-229.23-512-512-512c-282.77 0-512 229.23-512 512s229.23 512 512 512zM771.344 664.825c-8.923 9.566-23.383 9.566-32.237 0v0l-289.924-311.471-137.868 149.229c-8.919 9.562-23.38 9.562-32.302 0v0l-48.32-51.947c-8.923-9.499-8.923-25.044 0-34.613v0l153.679-166.344c0.135-0.073 0.069-0.285 0.135-0.431v0l48.388-51.951c8.854-9.572 23.314-9.572 32.237 0v0l354.533 380.976c8.919 9.562 8.919 25.040 0 34.602v0z" />
<glyph unicode="&#xe966;" glyph-name="unfinished" d="M512 960c282.77 0 512-229.23 512-512s-229.23-512-512-512c-282.77 0-512 229.23-512 512s229.23 512 512 512zM731.429 521.143h-438.857c-40.396 0-73.143-32.747-73.143-73.143s32.747-73.143 73.143-73.143v0h438.857c40.396 0 73.143 32.747 73.143 73.143s-32.747 73.143-73.143 73.143v0z" />
<glyph unicode="&#xe96b;" glyph-name="eye" d="M511.326 832c-197.127 0-344.126-112.426-441.396-335.975-7.906-18.314-7.906-39.306 0-57.62 97.271-223.445 244.319-335.871 441.396-335.871s344.126 112.426 441.396 335.975c7.906 18.314 7.906 39.306 0 57.62-97.271 223.445-244.27 335.871-441.396 335.871zM511.326 163.877c-165.499 0-305.839 110.735-391.324 303.391 85.484 192.76 225.824 303.391 391.324 303.391s299.488-110.735 384.973-303.391c-85.385-192.812-219.375-303.391-384.973-303.391zM311.716 475.189c-4.175-108.759 76.6-200.47 180.415-204.843s191.357 80.247 195.532 189.006c0.101 2.637 0.152 5.276 0.152 7.916 1.998 106.597-78.817 194.735-180.567 196.928-103.815 4.373-191.357-80.248-195.532-189.006zM507.248 341.973c-66.055-2.762-121.741 51.097-124.377 120.297s48.774 127.538 114.829 130.3c66.055 2.762 121.741-51.097 124.377-120.297 0.064-1.685 0.096-3.371 0.095-5.058 1.165-67.75-50.256-123.693-114.924-125.033v-0.209z" />
<glyph unicode="&#xe98f;" glyph-name="addcirle" d="M512 908.8c254.493 0 460.8-206.307 460.8-460.8s-206.307-460.8-460.8-460.8c-254.493 0-460.8 206.307-460.8 460.8s206.307 460.8 460.8 460.8zM550.4 652.8h-51.2v-192h-192v-51.2h192v-192h51.2v192h192v51.2h-192v192z" />
<glyph unicode="&#xe9bf;" glyph-name="caution1" d="M512 960c282.77 0 512-229.23 512-512s-229.23-512-512-512v0c-282.77 0-512 229.23-512 512s229.23 512 512 512v0zM511.744 277.056c-25.536 0-45.824-19.584-45.824-45.184 0-25.536 20.288-45.12 45.824-45.12 0.42-0.014 0.914-0.022 1.409-0.022 24.742 0 44.8 20.058 44.8 44.8 0 0.12 0 0.24-0.001 0.361v-0.018c0.001 0.121 0.002 0.263 0.002 0.406 0 24.742-20.058 44.8-44.8 44.8-0.496 0-0.99-0.008-1.482-0.024l0.072 0.002zM551.040 748.16h-78.080l5.632-388.928h66.688l5.632 388.928z" />
<glyph unicode="&#xe9c9;" glyph-name="close" d="M512 960c282.77 0 512-229.23 512-512s-229.23-512-512-512c-282.77 0-512 229.23-512 512s229.23 512 512 512zM687.158 667.218l-5.786-4.591-169.373-169.379-169.373 169.379-5.786 4.591c-12.341 7.651-28.757 6.121-39.469-4.591-12.497-12.497-12.497-32.758 0-45.255v0l169.379-169.373-169.379-169.373c-12.497-12.497-12.497-32.758 0-45.255 10.712-10.712 27.128-12.242 39.469-4.591l5.786 4.591 169.373 169.379 169.373-169.379 5.786-4.591c12.341-7.651 28.757-6.121 39.469 4.591 12.497 12.497 12.497 32.758 0 45.255v0l-169.379 169.373 169.379 169.373c12.497 12.497 12.497 32.758 0 45.255-10.712 10.712-27.128 12.242-39.469 4.591z" />
<glyph unicode="&#xe9ce;" glyph-name="handwrite" d="M810.667 810.667c58.91 0 106.667-47.756 106.667-106.667v0-597.333c0-58.91-47.756-106.667-106.667-106.667v0h-597.333c-58.91 0-106.667 47.756-106.667 106.667v0 597.333c0 58.91 47.756 106.667 106.667 106.667v0zM810.667 768h-597.333c-35.346 0-64-28.654-64-64v0-597.333c0-35.346 28.654-64 64-64v0h597.333c35.346 0 64 28.654 64 64v0 597.333c0 35.346-28.654 64-64 64v0zM681.301 650.923l24.064-40.96c-46.080-12.288-99.328-21.504-159.744-27.648v0-74.24h158.72v-47.104h-158.72v-72.704h197.12v-46.592h-197.12v-104.96c0-33.792-17.92-50.688-53.248-50.688v0h-79.36l-11.264 47.104c25.6-1.536 50.176-2.56 73.728-2.56 14.336 0 21.504 6.144 21.504 17.92v0 93.184h-215.552v46.592h215.552v72.704h-173.056v47.104h173.056v70.144c-52.224-3.584-108.032-5.632-168.448-5.632v0l-15.36 44.032c145.92 0 268.8 11.776 368.128 34.304v0z" />
<glyph unicode="&#xe9cf;" glyph-name="newlab" d="M239.012 667.429h537.774c121.495 0 219.091-97.595 219.091-219.092 0-121.5-97.595-219.095-219.091-219.095h-776.786v199.175c0 131.458 107.554 239.012 239.012 239.012zM368.476 328.831v227.059h-29.879v-173.285l-109.548 173.285h-29.874v-227.059h29.874v173.28l109.548-173.28h29.879zM545.741 434.395v23.9h-93.612v73.695h107.554v23.9h-137.433v-227.059h139.422v23.9h-109.543v81.664h93.612zM643.337 406.51l-33.858 147.385h-33.864l53.779-227.059h27.885l45.81 157.349 3.985 19.92 3.984-19.92 45.811-157.349h27.884l55.769 227.059h-33.863l-31.869-147.385-3.98-29.879-5.977 29.879-39.833 147.385h-29.879l-39.833-147.385-5.979-29.879-5.974 29.879z" />
<glyph unicode="&#xe9d0;" glyph-name="righthard" d="M581.055 779.627c-12.728 12.942-31.819 12.942-44.539 0-6.363-6.473-9.549-12.936-9.549-22.648v-152.062h-324.49c-15.904 0-31.811-16.175-31.811-32.352v-249.125c0-16.183 12.728-32.36 31.811-32.36h327.676v-152.062c0-19.416 15.906-32.35 31.811-32.35 9.541 0 15.904 3.231 22.269 9.704l302.221 307.363c12.728 12.944 12.728 32.352 0 45.296l-305.399 310.596z" />
<glyph unicode="&#xe9d1;" glyph-name="roundr" d="M933.973 542.305c12.559 0 24.608-4.991 33.491-13.87 8.877-8.883 13.87-20.932 13.87-33.49v0-426.25c0-26.156-21.203-47.359-47.361-47.359v0h-568.335c-26.158 0-47.361 21.203-47.361 47.359v0 426.25c0 26.156 21.203 47.359 47.361 47.359v0zM886.612 447.585h-473.615v-331.529h473.615v331.529zM471.897 872.831c3.208 1.611 7.046 1.264 9.918-0.894v0l164.201-123.138c2.385-1.789 3.788-4.597 3.788-7.577 0-2.982-1.403-5.789-3.788-7.577v0l-164.201-123.138c-2.872-2.152-6.71-2.499-9.918-0.895s-5.237 4.884-5.237 8.472v0 71.848c-182.97-0.185-331.197-148.558-331.197-331.529 0-16.921-9.025-32.557-23.681-41.024-14.655-8.461-32.71-8.461-47.365 0-14.651 8.467-23.675 24.103-23.675 41.024 0 235.28 190.635 426.066 425.919 426.25v0 79.707c0 3.588 2.027 6.867 5.237 8.471z" />
<glyph unicode="&#xe9d2;" glyph-name="meme" d="M914.363 832c26.158 0 47.361-21.203 47.361-47.359v-426.25c0-26.156-21.203-47.359-47.361-47.359l-165.989 0.009 0.017-165.983c0-26.156-21.203-47.359-47.361-47.359h-568.335c-26.158 0-47.361 21.203-47.361 47.359v426.25c0 12.557 4.992 24.607 13.87 33.49 8.883 8.879 20.932 13.87 33.491 13.87l165.973 0.043v165.931c0 12.557 4.992 24.607 13.87 33.49 8.883 8.879 20.932 13.87 33.491 13.87h568.335zM298.667 523.989l-118.612-0.043v-331.529h473.615l-0.017 118.622-307.626-0.009c-26.158 0-47.361 21.203-47.361 47.359v165.599zM653.67 523.947l-260.283 0.043 0.001-118.238 260.265 0.009 0.017 118.187zM867.003 737.28h-473.615l-0.001-118.571 307.643-0.043c26.158 0 47.361-21.203 47.361-47.359l-0.017-165.547 118.63-0.009v331.529z" />
<glyph unicode="&#xe9d3;" glyph-name="roundl" d="M658.363 542.305c26.158 0 47.361-21.203 47.361-47.359v-426.25c0-26.156-21.203-47.359-47.361-47.359h-568.335c-26.158 0-47.361 21.203-47.361 47.359v426.25c0 12.557 4.992 24.607 13.87 33.49 8.883 8.879 20.932 13.87 33.491 13.87h568.335zM611.003 447.585h-473.615v-331.529h473.615v331.529zM552.103 872.831c3.209-1.604 5.237-4.883 5.237-8.471v-79.707c235.284-0.185 425.919-190.97 425.919-426.25 0-16.921-9.025-32.557-23.675-41.024-14.655-8.461-32.71-8.461-47.365 0-14.657 8.467-23.681 24.103-23.681 41.024 0 182.971-148.227 331.344-331.197 331.529v-71.848c0-3.588-2.027-6.868-5.237-8.472-3.208-1.604-7.046-1.257-9.918 0.895l-164.201 123.138c-2.385 1.789-3.788 4.596-3.788 7.577s1.403 5.789 3.788 7.577l164.201 123.138c2.872 2.158 6.71 2.504 9.918 0.894z" />
<glyph unicode="&#xe9d4;" glyph-name="lefthard" d="M485.612 779.627c12.728 12.942 31.819 12.942 44.539 0 6.363-6.473 9.549-12.936 9.549-22.648v-152.062h324.49c15.904 0 31.811-16.175 31.811-32.352v-249.125c0-16.183-12.728-32.36-31.811-32.36h-327.676v-152.062c0-19.416-15.906-32.35-31.811-32.35-9.541 0-15.904 3.231-22.269 9.704l-302.221 307.363c-12.728 12.944-12.728 32.352 0 45.296l305.399 310.596z" />
<glyph unicode="&#xe9d5;" glyph-name="cardem" d="M877.714 740.571c40.396 0 73.143-30.821 73.143-68.84v-447.462c0-38.019-32.747-68.84-73.143-68.84h-768c-40.396 0-73.143 30.821-73.143 68.84v447.462c0 38.019 32.747 68.84 73.143 68.84h768zM877.714 685.714h-768c-9.616 0-16.585-5.554-18.015-11.672l-0.271-2.311v-447.462c0-6.182 5.901-12.422 14.81-13.733l3.476-0.251h768c9.616 0 16.585 5.554 18.015 11.672l0.271 2.311v447.462c0 6.182-5.901 12.422-14.81 13.733l-3.476 0.251zM347.429 611.74c54.626 0 98.909-44.283 98.909-98.909 0-39.702-23.391-73.94-57.144-89.685 56.963-11.191 100.051-45.038 103.471-88.362l0.219-5.577v-35.804h-34.909v35.804c0 32.719-48.28 63.105-110.545 63.105-59.775 0-106.661-28.004-110.316-59.192l-0.23-3.913v-35.804h-34.909v35.804c0 45.983 44.305 82.27 103.686 93.997-33.749 15.687-57.14 49.925-57.14 89.627 0 54.626 44.283 98.909 98.909 98.909zM768 338.286v-36.571h-182.857v36.571h182.857zM822.857 448v-36.571h-237.714v36.571h237.714zM347.429 576.831c-35.346 0-64-28.654-64-64s28.654-64 64-64c35.346 0 64 28.654 64 64s-28.654 64-64 64zM731.429 557.714v-36.571h-146.286v36.571h146.286z" />
<glyph unicode="&#xe9d6;" glyph-name="cardfull" d="M877.714 740.571c40.396 0 73.143-30.821 73.143-68.84v-447.462c0-38.019-32.747-68.84-73.143-68.84h-768c-40.396 0-73.143 30.821-73.143 68.84v447.462c0 38.019 32.747 68.84 73.143 68.84h768zM347.429 611.74c-54.626 0-98.909-44.283-98.909-98.909 0-39.702 23.391-73.94 57.144-89.685-59.385-11.669-103.69-47.957-103.69-93.939v0-35.804h34.909v35.804l0.23 3.913c3.655 31.188 50.541 59.192 110.316 59.192 62.265 0 110.545-30.386 110.545-63.105v0-35.804h34.909v35.804l-0.219 5.577c-3.42 43.325-46.508 77.171-103.466 88.42 33.749 15.687 57.14 49.925 57.14 89.627 0 54.626-44.283 98.909-98.909 98.909zM768 338.286h-182.857v-36.571h182.857v36.571zM822.857 448h-237.714v-36.571h237.714v36.571zM347.429 576.831c35.346 0 64-28.654 64-64s-28.654-64-64-64c-35.346 0-64 28.654-64 64s28.654 64 64 64zM731.429 557.714h-146.286v-36.571h146.286v36.571z" />
<glyph unicode="&#xe9d7;" glyph-name="change1" d="M1024 266.039v-66.922c0-70.257-63.317-127.17-141.459-127.17h-156.354v-22.988c0-5.779-5.181-10.475-11.615-10.475-2.052 0-4.069 0.49-5.835 1.408l-95.892 49.775c-3.586 1.939-5.76 5.356-5.76 9.042s2.174 7.103 5.76 9.042l95.892 49.773c2.672 1.396 5.875 1.777 8.875 1.063 3.007-0.722 5.542-2.475 7.027-4.868 1.016-1.562 1.548-3.388 1.548-5.213v-23.035h156.354c45.267 0 81.897 32.942 81.897 73.645v66.922h59.561zM976.803 857.6v-378.879l-77.144 75.785v227.335h-771.321v-401.613l231.394 227.335 208.255-204.6-53.999-53.056-154.256 151.549-231.394-227.335v-98.519h385.65v-75.789h-462.788v757.789h925.603zM876.025 446.672l95.892-49.761c3.584-1.939 5.758-5.361 5.758-9.040 0-3.685-2.174-7.108-5.758-9.040l-95.892-49.763c-1.766-0.924-3.783-1.407-5.835-1.407-6.497 0.084-11.684 4.741-11.615 10.419v22.981h-156.354c-45.267 0-81.899-32.934-81.899-73.626v-66.906h-59.56v66.906c0 70.24 63.317 127.139 141.459 127.139h156.354v23.083c0 1.824 0.53 3.65 1.546 5.212 1.487 2.386 4.022 4.145 7.029 4.861 2.998 0.721 6.202 0.333 8.875-1.056zM745.377 706.055c42.436 0 77.144-34.102 77.144-75.789s-34.708-75.785-77.144-75.785c-42.43 0-77.138 34.098-77.138 75.785s34.708 75.789 77.138 75.789z" />
<glyph unicode="&#xe9d8;" glyph-name="deletenew" d="M939.59 738.004v-70.189h-130.329v-581.288c-0.056-54.826-44.48-99.255-99.302-99.316v0h-438.954c-54.806 0.081-99.214 44.506-99.27 99.316v0 581.288h-120.534v70.189h888.39zM739.086 667.815h-497.172v-581.288c0.009-16.073 13.022-29.106 29.090-29.136v0h438.954c16.084 0.014 29.117 13.054 29.127 29.136v0 581.288zM384.511 553.226v-390.487h-70.19v390.487h70.19zM523.182 553.226v-390.487h-70.173v390.487h70.173zM661.921 553.226v-390.487h-70.19v390.487h70.19zM695.81 908.8v-70.19h-415.373v70.19h415.373z" />
<glyph unicode="&#xe9d9;" glyph-name="write" d="M853.346 481.954c18.303 0 36.601-4.577 50.327-18.303 22.875-27.447 22.875-73.198-4.577-105.222v0l-256.193-256.194c-4.577-4.577-18.303-9.149-22.875-9.149v0l-54.899-13.725h-4.577c-9.149 0-22.875 4.573-32.024 13.725-9.149 13.722-9.149 22.872-9.149 36.598v0l13.725 50.326c4.573 4.573 4.573 9.149 4.573 9.149 4.577 4.573 4.577 9.149 9.153 13.722v0l256.193 256.197c13.726 13.726 32.025 22.875 50.323 22.875zM849.92 826.88v-262.024h-61.44v200.584h-634.88v-593.92h260.982v-61.44h-322.422v716.8h757.76zM793.874 390.453l-210.448-210.444-9.149-50.326 45.75 9.149 210.444 210.448-36.597 41.173zM481.027 369.973c13.726 0 22.875-9.149 22.875-22.875 0-13.721-9.149-22.875-22.875-22.875v0h-242.468c-13.725 0-22.875 4.577-22.875 22.875 0 18.303 9.149 22.875 22.875 22.875v0zM853.346 436.204c-9.149 0-13.722-4.577-18.298-9.149v0l-9.149-9.149 36.601-36.601 9.149 9.149c4.573 4.577 9.149 13.726 9.149 22.875s0 13.726-4.576 18.299c-4.573 4.577-13.722 4.577-22.875 4.577zM650.301 530.095c18.298 0 22.875-9.149 22.875-22.872 0-9.152-9.153-22.875-18.302-22.875v0h-416.315c-13.725 0-22.875 9.149-22.875 22.875 0 13.722 9.149 22.872 22.875 22.872v0zM657.76 662.761c7.279-0.050 11.347-0.502 15.415-4.567 4.573 0 4.573-9.152 4.573-18.302 0-13.722-9.149-22.875-22.875-22.875v0h-416.315c-13.725 0-22.875 4.576-22.875 22.875 0 18.302 9.149 22.875 22.875 22.875v0z" />
<glyph unicode="&#xe9da;" glyph-name="fileup" d="M830.539 748.487l1.017-2.473 129.544-371.58c0.632-1.846 1.077-3.735 1.292-5.661l0.169-2.896v-280.766c0-13.442-10.251-24.707-23.746-26.083l-2.711-0.149h-827.728c-13.575 0-24.949 10.167-26.329 23.549l-0.127 2.659v280.767c0 1.952 0.211 3.901 0.636 5.79l0.802 2.789 129.586 371.557c4.64 13.127 18.825 20.376 32.312 16.516 13.487-3.863 21.578-17.488 18.437-31.045l-0.74-2.579-115.968-332.553 259.988-0.026c13.12 0 24.275-9.54 26.158-22.417 5.925-40.049 40.273-70.851 79.702-70.851 38.793 0 73.245 31.098 79.554 71.083 1.833 11.752 11.427 20.809 23.365 22.059l2.75 0.125 278.994 0.005-115.95 332.574c-4.429 12.706 1.557 26.672 13.863 32.333l2.52 1.007h-0.024c12.824 4.389 26.92-1.543 32.634-13.735zM134.829 111.323h774.821l-0.011 232.577-270.438 0.001-0.636-2.013c-18.097-51.288-65.648-88.986-120.716-91.167l-5.017-0.107c-57.736 0-107.83 38.287-126.134 91.38l-0.617 1.907-251.261 0.019 0.009-232.597zM751.726 565.18c13.714 0 24.973-10.315 26.329-23.526l0.127-2.683v-104.024h-52.908v77.812h-424.881v-77.79h-52.909v104.002c0 13.568 10.412 24.742 23.764 26.064l2.689 0.144h477.789zM705.21 710.786c13.714 0 24.973-10.316 26.327-23.527l0.149-2.683v-80.206h-52.908l-0.024 54.016h-331.844v-54.035h-52.909v80.224c0 13.565 10.412 24.742 23.768 26.084l2.688 0.125h384.754zM668.595 837.12c13.695 0 24.953-10.297 26.307-23.526l0.127-2.686v-61.877h-52.908v35.688h-258.578v-35.707h-52.908v61.897c0 13.591 10.411 24.745 23.745 26.087l2.711 0.125h311.504z" />
<glyph unicode="&#xe9db;" glyph-name="picup" d="M627.539 155.062v-68.21h-68.21v68.21h68.21zM763.93 155.062v-68.21h-68.211v68.21h68.211zM900.32 155.062v-68.21h-68.206v68.21h68.206zM900.348 837.045v-340.991l-68.211 68.206v204.601h-682.010v-361.452l204.601 204.601 184.141-184.14-47.746-47.75-136.395 136.394-204.601-204.601v-88.667h340.996v-68.21h-409.202v682.010h818.428zM729.81 509.709l160.281-160.277-47.75-47.75-78.411 78.439v-156.851h-68.211v156.851l-78.434-78.439-47.75 47.75 160.276 160.277zM695.719 700.654c37.522 0 68.211-30.692 68.211-68.21s-30.689-68.206-68.211-68.206c-37.517 0-68.206 30.688-68.206 68.206s30.689 68.21 68.206 68.21z" />
</font>
</defs>
</svg>
